<?xml version="1.0" encoding="UTF-8"?>
<svg id="Layer_2" data-name="Layer 2" xmlns="http://www.w3.org/2000/svg" viewBox="0 0 202.9 168.58">
  <defs>
    <style>
      .cls-1 {
        fill: #7a80d1;
      }

      .cls-2 {
        fill: #dc9090;
      }

      .cls-3 {
        fill: #6a2a2a;
      }

      .cls-4, .cls-5 {
        fill: #b14e4a;
      }

      .cls-6 {
        fill: #fff;
      }

      .cls-7 {
        fill: #6a2a2a;
      }

      .cls-8 {
        fill: #cdcde5;
      }

      .cls-9 {
        fill: #d77b7b;
      }

      .cls-10 {
        fill: #e3a2a2;
      }

      .cls-11 {
        fill: #6666c7;
      }

      .cls-5 {
        opacity: .15;
      }

      .cls-12 {
        fill: #4646b2;
      }

      .cls-13 {
        fill: #dda45b;
      }

      .cls-14 {
        fill: #b14e4a;
      }

      .cls-15 {
        fill: #7a80d1;
      }

      .cls-16 {
        fill: #e7b7b7;
      }

      .cls-17 {
        fill: #2d2d6b;
      }

      .cls-18 {
        fill: #dda45b;
      }

      .cls-19 {
        fill: #e7b7b7;
      }

      .cls-20 {
        fill: #2d2d6b;
      }
    </style>
  </defs>
  <g id="OBJECTS">
    <g>
      <ellipse class="cls-5" cx="101.45" cy="162.85" rx="101.45" ry="5.73"/>
      <g>
        <g>
          <path class="cls-9" d="M180.92,158.57c10.33-6.98,10.6-16.44,8.85-18.33-1.75-1.89-5.53,1.79-5.53,1.79,0,0,7.39-16.7.15-18.37-7.49-1.73-6.62,16.98-6.62,16.98,0,0-2.65-7.05-6.33-4.25-3.87,2.95-2.33,13.13,5.76,22.18h3.71Z"/>
          <g>
            <path class="cls-7" d="M179.17,157.4s-.01,0-.02,0c-.16-.01-.28-.15-.26-.31.02-.21,1.61-21.42,4.8-31.79.05-.15.21-.24.36-.19.15.05.24.21.19.36-3.18,10.31-4.76,31.45-4.78,31.66-.01.15-.14.27-.29.27Z"/>
            <path class="cls-7" d="M179.48,153.7c-.09,0-.17-.04-.23-.12-.05-.07-5.4-7.32-6.61-14.97-.02-.16.08-.3.24-.33.16-.02.3.08.33.24,1.19,7.51,6.45,14.65,6.5,14.72.09.13.07.31-.06.4-.05.04-.11.06-.17.06Z"/>
            <path class="cls-7" d="M179.73,151.12c-.1,0-.19-.05-.25-.14-.08-.14-.04-.31.1-.39.07-.04,7.15-4.3,8.22-8.5.04-.15.2-.25.35-.21.15.04.25.2.21.35-1.14,4.43-8.19,8.67-8.49,8.85-.05.03-.1.04-.15.04Z"/>
            <path class="cls-7" d="M181.5,137.13s-.09-.01-.13-.03c-.14-.07-.19-.25-.12-.39.1-.2,2.58-4.89,4.49-7.27.1-.12.28-.14.4-.04.12.1.14.28.04.4-1.87,2.34-4.41,7.13-4.43,7.18-.05.1-.15.15-.25.15Z"/>
          </g>
        </g>
        <g>
          <path class="cls-17" d="M24.41,125.13c-.73-.88-1.37-1.2-1.7-.97-.32.24-.29.68-.29.68,0,0-1.04-.38-1.44,0-.4.38-.15.72-.15.72,0,0-.38-.18-.62.25-.24.44.25,1.61.25,1.61l3.15-1.01.78-1.29Z"/>
          <path class="cls-17" d="M35.08,132.23c1.16,1.24,1.69,2.35,1.69,2.35,0,0-3.85-3.44-6.76-1.8,0,0,3.08-2.66,5.07-.55Z"/>
          <path class="cls-17" d="M22.21,138.19c-1.42.69-1.49,3.19-1.49,3.19,0,0,1.75-2.21,3.49-1.33l-2-1.86Z"/>
          <path class="cls-17" d="M32.71,154.52s.03,0,.04,0c.12-.02.19-.14.17-.26-.27-1.29-.51-2.51-.75-3.7-1.75-8.66-3.01-14.92-7.27-21.25-.07-.1-.2-.13-.3-.06-.1.07-.13.2-.06.3,4.21,6.27,5.47,12.49,7.21,21.1.24,1.18.49,2.41.75,3.7.02.1.11.17.21.17Z"/>
          <path class="cls-1" d="M30.48,143.63c-4.94-7.85-8.27-5.43-8.27-5.43,3.53,5.11,8.27,5.43,8.27,5.43Z"/>
          <path class="cls-1" d="M28.86,137.84c.55-3.76,2.24-7.63,6.23-5.61,0,0-2.35-3.33-5.02-1.64-2.67,1.69-1.21,7.25-1.21,7.25Z"/>
          <path class="cls-1" d="M24.87,129.66c-1.58,1.15-3.93-.77-4.88-1.72,0,0-.36-1.33.68-1.11,0,0-.27-.65.19-.85.46-.19.91.47.91.47,0,0-.28-1.31.52-1.26s1.02.63,1.02.63c0,0-.03-.82.63-.98.65-.16,2.52,3.66.92,4.82Z"/>
        </g>
        <g>
          <path class="cls-9" d="M10.69,162.04c-3.82-4.84,3.04-4.26,3.04-4.26,0,0-1.85-4.51.4-5.91,2.78-1.73,5.73,3.56,5.73,3.56,0,0-2-7.28,5.18-8.43,5.45-.87,6.65,6.47,6.65,6.47,0,0,2.02-3.69,6.68-2.6,2.09.49,4.1,4.25,1.7,6.58,0,0,6.33.22,4.36,4.58H10.69Z"/>
          <g>
            <path class="cls-7" d="M27.87,160.28c-.15,0-.27-.11-.29-.26-.29-3.37-1.32-7.97-3.32-10.8-.09-.13-.06-.31.07-.4.13-.09.31-.06.4.07,2.07,2.92,3.12,7.64,3.42,11.08.01.16-.1.3-.26.31,0,0-.02,0-.02,0Z"/>
            <path class="cls-7" d="M27.36,156.74c-.09,0-.18-.05-.24-.13-1.05-1.59-3.16-2.96-5.38-3.48-.15-.04-.25-.19-.21-.34.04-.15.19-.25.34-.21,2.39.56,4.59,1.99,5.73,3.72.09.13.05.31-.08.4-.05.03-.1.05-.16.05Z"/>
            <path class="cls-7" d="M32.67,159.92s-.07,0-.11-.02c-.15-.06-.22-.23-.16-.37.72-1.78,2.86-5.45,5.78-6.6.15-.06.31.01.37.16.06.15-.01.31-.16.37-2.54,1.01-4.66,4.31-5.46,6.29-.05.11-.15.18-.27.18Z"/>
          </g>
        </g>
        <g>
          <path class="cls-1" d="M189.69,162.05h-30.71s-3.51-2.7-.53-5.78,6.69,1.07,6.69,1.07c0,0-.23-2.01.46-2.61,1-.86,2.69-.17,2.69-.17,0,0-.79-3.28,1.91-4.72,2.69-1.44,6.01,4.15,6.01,4.15,0,0,0-5.97,4.52-6.19s2.25,7.56,2.25,7.56c0,0,2.91-2.62,4.44-1.74,1,.57.91,2.65-.44,4.89,2.06-.14,3.59,1.69,2.72,3.54Z"/>
          <g>
            <path class="cls-17" d="M177.89,160.61s0,0-.01,0c-.16,0-.28-.14-.27-.3,0-.05.27-4.89,2.75-9.95.07-.14.24-.2.38-.13.14.07.2.24.13.38-2.43,4.95-2.69,9.68-2.69,9.73,0,.15-.13.27-.29.27Z"/>
            <path class="cls-17" d="M175.93,160.95c-.05,0-.1-.01-.15-.04-.16-.1-4.04-2.57-4.86-7.84-.02-.16.08-.3.24-.33.16-.02.3.08.33.24.78,5.02,4.56,7.42,4.6,7.44.13.08.18.26.09.39-.05.09-.15.14-.24.14Z"/>
            <path class="cls-17" d="M178.42,157.13c-.05,0-.1-.01-.15-.04-.14-.08-.18-.26-.1-.39,1.16-1.9,2.92-3.22,4.05-3.55.15-.05.31.04.36.2.04.15-.04.31-.2.36-1.03.3-2.64,1.53-3.73,3.3-.05.09-.15.14-.24.14Z"/>
          </g>
        </g>
        <g>
          <path class="cls-9" d="M76.56,162.04c-2.62-15.85,2.16-26.22,7.31-24.4,6.14,2.16-3.25,21.73-3.25,21.73,0,0,8.26-13.98,12.21-10.17,5.66,5.46-11.15,12.84-11.15,12.84h-5.12Z"/>
          <g>
            <path class="cls-7" d="M78.81,161.47h0c-.16,0-.28-.14-.28-.29,0-.12.38-12.34,4.03-22.02.06-.15.22-.22.37-.17.15.06.22.22.17.37-3.62,9.58-3.99,21.71-3.99,21.83,0,.16-.13.28-.29.28Z"/>
            <path class="cls-7" d="M81.29,161.14c-.07,0-.14-.03-.2-.08-.11-.11-.12-.29,0-.41.3-.31,7.5-7.68,10.11-9.68.13-.1.31-.07.4.05.1.13.07.31-.05.4-2.58,1.97-9.97,9.54-10.05,9.62-.06.06-.13.09-.21.09Z"/>
            <path class="cls-7" d="M79.85,151.29c-.1,0-.2-.05-.25-.14-.07-.12-1.7-2.98-1.91-6.8,0-.16.11-.29.27-.3.18,0,.29.11.3.27.21,3.67,1.82,6.52,1.84,6.54.08.14.03.31-.11.39-.05.03-.09.04-.14.04Z"/>
            <path class="cls-7" d="M79.5,153.7c-.07,0-.14-.03-.2-.08-2.27-2.18-2.57-5.64-2.58-5.79-.01-.16.1-.3.26-.31.16-.02.3.1.31.26,0,.03.3,3.39,2.41,5.42.11.11.12.29,0,.41-.06.06-.13.09-.21.09Z"/>
            <path class="cls-7" d="M85.5,156.91c-.1,0-.2-.06-.26-.16-.07-.14-.02-.31.12-.39,1.31-.67,4-.63,4.12-.63.16,0,.28.13.28.29,0,.16-.14.28-.29.28-.02,0-2.67-.04-3.84.57-.04.02-.09.03-.13.03Z"/>
          </g>
        </g>
        <g>
          <path class="cls-9" d="M103.88,130.21c2.22,2.72,1.92,7.31-1.41,9.74-.93.23-2.73-3.06-1.24-5.7,1.29-2.29,2.65-4.05,2.65-4.05Z"/>
          <ellipse class="cls-9" cx="91.22" cy="129.15" rx="1.89" ry="2.36"/>
          <path class="cls-9" d="M85.22,122.2c0,.87.61,1.58,1.37,1.58s1.37-.71,1.37-1.58-.61-1.58-1.37-1.58-1.37.71-1.37,1.58Z"/>
        </g>
      </g>
      <g>
        <path class="cls-5" d="M96.86,47.8c34.73-19.41,10.09-40.4,0-26.09-10.09-14.31-34.71,6.68,0,26.09Z"/>
        <path class="cls-4" d="M105.44,32.99c9.11-5.09,2.65-10.59,0-6.84-2.65-3.75-9.1,1.75,0,6.84Z"/>
        <path class="cls-4" d="M98.21,11.64c4.8-2.68,1.4-5.59,0-3.61-1.4-1.98-4.8.92,0,3.61Z"/>
        <path class="cls-4" d="M109.21,3.21c3.61-2.02,1.05-4.2,0-2.72-1.05-1.49-3.61.7,0,2.72Z"/>
      </g>
      <g>
        <g>
          <g>
            <path class="cls-16" d="M48.14,141.72l-2.41,15.78s-2.09-.22-7.86-.99l.78-14.8h9.49Z"/>
            <path class="cls-3" d="M48.14,141.72l-.98,6.38s-3.07.39-8.83-.37l.32-6.01h9.49Z"/>
            <g>
              <path class="cls-6" d="M46.69,151.23l-.96,6.27s-2.09-.22-7.86-.99l.3-5.91,8.51.62Z"/>
              <polygon class="cls-11" points="38.11 152.59 38.14 151.56 46.54 152.19 46.39 153.19 38.11 152.59"/>
            </g>
            <g>
              <rect class="cls-11" x="36.39" y="162.3" width="14.17" height="1.15"/>
              <path class="cls-20" d="M36.39,162.3h14.16s.57-5.29-3.7-5.92c-.81-.21-.34-.8-.52-.99-.34-.37-.89.68-1.9.18-.67-.33.19-1.44-.29-2.13-.34-.49-2.49-.9-3.4-.23-1.11.81-.49,2.44-1.4,2.5-1.77.11-1.48-1.04-2.11-1.04-.82,0-1.04,4.81-.85,7.63Z"/>
            </g>
          </g>
          <g>
            <path class="cls-16" d="M70.01,141.72l.84,14.43s-3.21.6-8.98-.16l-.79-14.27h8.92Z"/>
            <path class="cls-3" d="M70.01,141.72l.31,5.38s-2.8,1.12-8.92.38l-.32-5.76h8.92Z"/>
            <g>
              <path class="cls-6" d="M70.54,150.82l.31,5.34s-3.21.6-8.98-.16l-.25-4.53,8.92-.64Z"/>
              <polygon class="cls-11" points="61.74 153.42 61.69 152.52 70.6 151.81 70.65 152.61 61.74 153.42"/>
            </g>
            <g>
              <path class="cls-20" d="M61.59,162.3h23.31s.35-4.13-3.92-4.76c-4.56-.68-9.03-1.02-9.36-1.68-.34-.67.19-1.79-.29-2.48-.34-.49-1.3-.89-1.62-.31-.6,1.07.06,2.2-.81,2.46-2.43.72-5.68.14-6.25-.57-.57-.72-1.91.3-1.24,1.97.75,1.88-.33,3.78.19,5.39Z"/>
              <rect class="cls-11" x="61.59" y="162.3" width="23.32" height="1.15"/>
            </g>
          </g>
          <path class="cls-15" d="M68.13,68.87c.93,7.75,2.73,41.13,2.73,41.13l1.27,34.19c.22,2.33-12.29,1.93-12.44.45,0,0-3.1-30.03-4.34-35.13-.96-3.99-12.02-41.26-12.02-41.26l24.79.61Z"/>
          <path class="cls-20" d="M55.35,109.52c.26,1.09.61,3.33,1,6.16l1.83-25-7.33,3.03c2.21,7.6,4.12,14.28,4.49,15.82Z"/>
          <path class="cls-15" d="M41.27,68.17c-3.77,8.28-4.1,16.49-2.54,26.24.38,2.38.54,14.62.54,17.58-1.07,7.74-1.8,18.27-2.49,32.35-.2,2.69,13.36,2.15,13.45.35l3.45-33.92,2.3-14.42c3.73-3.5,3.56-13.73,4.14-27.68l-18.85-.51Z"/>
          <path class="cls-7" d="M37.19,76.38c-1.05,1.7-.03,4.53,1.38,5.21,1.85.88,29.31.16,30.96-.88,1.65-1.05,1.29-5.45-.45-6.11-2.94-1.13-31.89,1.79-31.89,1.79Z"/>
          <path class="cls-20" d="M44.22,144.24c-2.61,0-5.34-.41-6.47-.93-.14-.07-.2-.24-.14-.38.07-.14.24-.2.38-.14,1.84.86,9.01,1.41,11.09.02.13-.09.31-.05.4.08.09.13.05.31-.08.4-1.03.69-3.07.96-5.18.96Z"/>
          <path class="cls-20" d="M65.47,144.47c-2.36,0-4.3-.45-5.1-.66-.15-.04-.24-.2-.2-.35.04-.15.2-.24.35-.2,1.32.36,5.96,1.39,10.23-.28.15-.06.31.01.37.16.06.15-.02.31-.16.37-1.86.73-3.78.96-5.49.96Z"/>
          <path class="cls-20" d="M39.93,141.06s-.02,0-.03,0c-.16-.01-.27-.15-.26-.31.47-5.37,1.18-12.48,1.75-18.18.47-4.71.84-8.42.86-9,.01-.4-.06-.49-.06-.49-.01,0-.1.01-.15.02-.17.03-.45.07-.65-.16-.09-.1-.13-.24-.09-.37.09-.36.79-.71,1.42-.95.03-1.83.21-15.93-.69-22.69-.02-.16.09-.3.25-.32.14-.02.3.09.32.25.96,7.25.69,22.81.69,22.97v.2s-.19.07-.19.07c-.36.13-.71.29-.95.43.14,0,.29.02.43.14.19.17.26.45.25.93-.02.6-.37,4.14-.86,9.04-.57,5.71-1.29,12.81-1.75,18.18-.01.15-.14.26-.28.26ZM43.01,111.81h0,0Z"/>
          <path class="cls-20" d="M61.63,142.01c-.15,0-.28-.12-.29-.28-.26-10.74-2.24-25.23-2.45-26.74-.2-.13-.61-.44-.91-.74-.42-.44-.02-.88.25-1.17.14-.16.29-.32.38-.5.17-.66-1.41-10.82-2.41-14.22-.04-.15.04-.31.19-.36.15-.04.31.04.36.19.88,2.98,2.73,13.91,2.37,14.63-.12.25-.31.45-.47.63-.1.11-.27.3-.28.37.36.37.93.74.94.75l.11.07.02.13c.02.15,2.2,15.62,2.48,26.93,0,.16-.12.29-.28.29h0Z"/>
          <g>
            <path class="cls-16" d="M89.88,68.17c.32.18.96,1.4,2.85.87.95-.26,3.4.13,3.71.13,1,.02,2.34.72,2.69.8.15.03.25.86-.69,1.15-.37.12-.87.07-1.73-.18-.45-.13-1.71-.08-1.85.24-.18.41-.12.76.37,1.12,1.24.93,6.58,1.97,6.85,2.38.22.33.08,1.26-.83,1.11-.57-.09-2.61-.61-2.75-.27-.09.2,1.58,1.17,3.14,2.04.96.54.13,1.51-.36,1.32-1.07-.42-1.99-.79-2.17-.72-.14.05.55.62.71.8.47.54-.14,1.28-.71,1.05-.19-.07-2.98-1.49-3.2-1.19-.14.2.73.72.8.8.49.58-.15,1.39-.91.89-.66-.43-3.54-2.28-4.22-2.79-.9-.66-2.74-1.84-6.27-5.31l4.58-4.27Z"/>
            <g>
              <path class="cls-14" d="M98.54,75.63s-.02,0-.03,0c-1.5-.36-2.38-.79-2.42-.81-.07-.04-.1-.12-.06-.19.04-.07.12-.1.19-.06,0,0,.89.44,2.36.79.08.02.12.1.11.17-.02.07-.07.11-.14.11Z"/>
              <path class="cls-14" d="M99.1,78.32s-.04,0-.06-.01c-1.07-.48-3-1.43-3.45-1.77-.06-.05-.07-.14-.03-.2.05-.06.14-.07.2-.03.44.33,2.33,1.27,3.39,1.74.07.03.1.12.07.19-.02.05-.08.09-.13.09Z"/>
              <path class="cls-14" d="M95.8,78.98s-.06,0-.08-.02c-.36-.24-1.28-.95-1.32-.98-.06-.05-.07-.14-.03-.2.05-.06.14-.07.2-.03,0,0,.95.73,1.3.97.07.04.08.13.04.2-.03.04-.07.06-.12.06Z"/>
              <path class="cls-14" d="M91.16,74.01c-.29,0-.56-.02-.78-.06-.08-.01-.13-.09-.11-.17.01-.08.09-.13.17-.11.95.18,2.85-.04,3.54-.78.05-.06.14-.06.2,0,.06.05.06.14,0,.2-.59.64-1.96.93-3.02.93Z"/>
            </g>
          </g>
          <path class="cls-13" d="M82.97,71.15c.99,1.79,3.41,2.5,3.41,2.5,1.19-.5,4.71-3.26,4.39-5.07,0,0-.53-1.51-2.28-2.71l-5.52,5.28Z"/>
          <path class="cls-18" d="M82.82,71.57c-1.77.62-6.8-5.61-8.75-7.63-.67-.7-4.82-6.75-4.82-6.75-.5,7.86,3.95,16.54,1.86,19.98-2.53,2.13-33.07,2.55-34.36.88-2.63-1.83.32-12.77.78-24.04.34-8.12-.56-14.28,4.42-16.74,1.47-.62,3.59-1.08,5.53-1.37.03-1.99-.84-3.77,1.2-4.45,1.51-.5,9.08.22,11.27,1.18,1.67.73,2.97,2.24,3.47,3.53,1.52.29,3.61.79,5.9,1.63,2.55.94,9.42,16.55,10.81,18.78,3.07,4.87,8.56,7.49,8.49,9.03.66,2.13-3.85,5.81-5.81,5.99Z"/>
          <path class="cls-17" d="M52.58,29.78c-1.65-.38-4.13-5.3-4.13-11.55,0-4.77,3.87-4.5,3.87-4.5,1.12-2.82,5.31-3.2,9.65-1.27,5.59-2.01,8.23,4.4,4.81,7.07-.8,2.67-2.64,5.43-4.66,6.26l-9.54,3.99Z"/>
          <path class="cls-19" d="M60.35,34.91c-.59,1.3-.68,3.5-.68,3.5l-1.6.32c-1.07-.09-2.34-.47-3.47-.89-.56-1.24-1.5-3-2.74-4.26l.89-10.05,6.81,1.38c-.1,1,.49,7.07.79,10.01Z"/>
          <path class="cls-7" d="M69.29,57.52s0,0-.01,0c-.16,0-.28-.14-.27-.3.27-5.56-.5-12.51-.51-12.58-.02-.16.1-.3.25-.32.15-.02.3.1.32.25,0,.07.79,7.06.51,12.67,0,.15-.13.27-.29.27Z"/>
          <path class="cls-7" d="M60.25,33.93c-5.66-.57-5.92-4.99-5.92-4.99l5.5.53c.13,1.52.29,3.15.42,4.46h0Z"/>
          <path class="cls-19" d="M64.27,18.89c1.32,2.1.43,3.24.43,5.32,0,2.24.86,5.42-.94,7.08-1.86,1.72-6.17,1.8-9.11-1.92-2.98-3.75-2.3-10.02.94-11.63,2.77-1.38,6.86-1.75,8.69,1.15Z"/>
          <path class="cls-17" d="M65.56,20.26c-.56,1.48-3.76.28-3.69-1.39-1.28-.35-3-.32-4.56.23-.41,1.24-2.91,6.12-4.58,3.46-1.68-2.67-.68-5.45,2.22-6.73,2.9-1.29,6.52-1.7,8.54,0s2.06,4.44,2.06,4.44Z"/>
          <g>
            <path class="cls-19" d="M52.73,22.55c-.83-1.07-2.49-.75-2.88.59-.27.92,0,3.54,2.63,3.36,2.44-.16.86-3.17.25-3.95Z"/>
            <path class="cls-4" d="M52.37,25.05s-.02,0-.03,0c-.08-.02-.12-.1-.11-.17.17-.69-.01-1.43-.42-1.71-.24-.17-.52-.14-.82.06-.06.04-.15.03-.2-.04-.04-.07-.03-.15.04-.2.4-.27.8-.29,1.14-.06.51.35.74,1.2.54,2.02-.02.07-.07.11-.14.11Z"/>
          </g>
          <path class="cls-7" d="M51.78,39.78s-.07,0-.1-.02c-1.62-.62-3.38-2.03-4.19-3.36-.08-.14-.04-.31.1-.39.13-.08.31-.04.39.1.75,1.23,2.39,2.54,3.9,3.12.15.06.22.22.17.37-.04.11-.15.18-.27.18Z"/>
          <path class="cls-7" d="M61.97,39.78c-.11,0-.21-.06-.26-.17-.07-.14,0-.31.14-.38,1.06-.49,1.62-1.69,1.35-2.92-.03-.15.06-.31.22-.34.16-.03.31.06.34.22.33,1.49-.36,2.95-1.67,3.56-.04.02-.08.03-.12.03Z"/>
          <g>
            <path class="cls-7" d="M55.21,46.71s-.05,0-.08-.01c-.15-.04-.24-.2-.2-.35.01-.04,1.12-4.09.09-6.07-.07-.14-.02-.31.12-.39.14-.07.31-.02.39.12,1.13,2.18,0,6.32-.05,6.49-.04.13-.15.21-.28.21Z"/>
            <path class="cls-7" d="M55.85,40.14c0-.36-.29-.64-.64-.64s-.64.29-.64.64.29.64.64.64.64-.29.64-.64Z"/>
          </g>
          <g>
            <path class="cls-7" d="M60.54,46.42c-.14,0-.26-.1-.28-.24-.03-.18-.78-4.34-.79-5.95,0-.16.13-.29.28-.29h0c.16,0,.28.13.29.28.02,1.56.78,5.81.78,5.85.03.16-.08.3-.23.33-.02,0-.03,0-.05,0Z"/>
            <path class="cls-7" d="M60.4,40c0-.36-.29-.64-.64-.64s-.64.29-.64.64.29.64.64.64.64-.29.64-.64Z"/>
          </g>
          <g>
            <rect class="cls-6" x="45.95" y="51.67" width="21.67" height="2.01"/>
            <rect class="cls-6" x="45.95" y="55.83" width="21.67" height="2.01"/>
          </g>
          <path class="cls-20" d="M39.71,87.02c-.13,0-.25-.09-.28-.22-.04-.15.06-.31.21-.34,2.68-.64,3.44-1.38,4.5-3.44.07-.14.25-.2.39-.12.14.07.2.25.12.39-1.12,2.16-2.02,3.05-4.88,3.73-.02,0-.04,0-.07,0Z"/>
          <path class="cls-7" d="M76.01,59.07c-.09,0-.18-.04-.24-.13-.09-.13-.05-.31.08-.4l.25-.17c.81-.55,2.17-1.48,3.68-2.01.15-.05.31.03.36.18.05.15-.03.31-.18.36-1.43.5-2.75,1.4-3.54,1.94l-.25.17s-.1.05-.16.05Z"/>
          <path class="cls-7" d="M83.41,71.72c-.14,0-.26-.1-.28-.24-.02-.16.08-.3.24-.33,1.3-.2,3.9-2.58,5.07-5.07.07-.14.24-.2.38-.14.14.07.2.24.14.38-1.16,2.47-3.89,5.14-5.5,5.39-.01,0-.03,0-.04,0Z"/>
          <g>
            <g>
              <path class="cls-2" d="M53.78,77.62c5.13,1.65,5.16,1.92,5.34,2.55.18.64-.93,1.33-.93,1.33l-4.41-3.88Z"/>
              <g>
                <path class="cls-14" d="M57.11,77.91c-1.89-7.58,3.14-10.16,3.14-10.16,1.78,5.31-3.14,10.16-3.14,10.16Z"/>
                <path class="cls-14" d="M61.68,72.35c4.7-6.24,9.86-3.96,9.86-3.96-3,4.72-9.86,3.96-9.86,3.96Z"/>
                <path class="cls-3" d="M49.82,86.33c-.07,0-.14-.03-.2-.08-.11-.11-.12-.29,0-.41,9.94-10.18,18.84-23.33,18.93-23.46.09-.13.27-.17.4-.08.13.09.17.27.08.4-.09.13-9.02,13.33-19,23.55-.06.06-.13.09-.2.09Z"/>
                <path class="cls-3" d="M70.2,57.48c.2-.11.81-.41,1.18-.15.38.25.42.59.42.59,0,0,.26-.23.65.04s.25.57.3.6c.05.03.43-.3.79.13.36.43-.1,1.71-.91,2.4-.81.69-2.44-3.6-2.44-3.6Z"/>
                <path class="cls-14" d="M68.36,63.07c-2.06-1.39.9-5.79.93-5.84.03-.04,1.02-.55,1.61.11.59.66.55,1.39.55,1.39,0,0,.36-.21.62.05.26.26.38.65.38.65,0,0,.8-.31,1.06.21.26.52-2.69,5.09-5.15,3.42Z"/>
              </g>
              <path class="cls-16" d="M46.08,79.08c.57.54,5.36,5.93,6.64,6.13.26.04.76,0,1.18-.35,0,0,.96-.06,1.31-.65,0,0,1.08-.02,1.21-.76,0,0,1.23,0,1.18-.97.42.25,1.21-.87.59-1.57-1.09-1.23-6.8-5.16-7.33-5.3-.53-.14-4.78,3.47-4.78,3.47Z"/>
              <g>
                <path class="cls-14" d="M53.73,84.93s-.07-.01-.1-.04c0,0-.3-.26-.63-.57-.06-.05-.06-.14,0-.2.05-.06.14-.06.2,0,.34.31.63.57.63.57.06.05.06.14.01.2-.03.03-.07.05-.11.05Z"/>
                <path class="cls-14" d="M54.98,84.23s-.43-.38-.85-.77c-.06-.05-.06-.14,0-.2.05-.06.14-.06.2,0,.41.38.84.76.84.76l-.19.22Z"/>
                <path class="cls-14" d="M56.33,83.5s-.07-.01-.1-.04c0,0-.64-.57-1.11-1.01-.06-.05-.06-.15,0-.2.05-.06.15-.06.2,0,.46.44,1.1,1,1.1,1.01.06.05.06.14.01.2-.03.03-.07.05-.11.05Z"/>
                <path class="cls-14" d="M57.51,82.55s-.07-.01-.1-.04c-.04-.04-1.09-.97-1.48-1.38-.05-.06-.05-.15,0-.2.06-.05.15-.05.2,0,.37.4,1.45,1.35,1.46,1.36.06.05.06.14.01.2-.03.03-.07.05-.11.05Z"/>
              </g>
            </g>
            <g>
              <path class="cls-13" d="M41.95,37.26c-7.28,4.8-12.97,17.18-12.97,22.28,0,4.39,11.58,17.8,13.44,17.81,1.15,0,7.74-4.01,6.75-5.77-1.68-2.98-9.66-10.49-9.15-13.16.5-2.64,6.86-10.01,7.52-13.24.71-3.44-3.38-8.14-5.59-7.92Z"/>
              <path class="cls-3" d="M40.39,60.37c-.1,0-.2-.05-.25-.15-.86-1.61-2-2.43-3.36-2.43-.16,0-.29-.13-.29-.29s.13-.29.29-.29c1.6,0,2.9.92,3.87,2.73.07.14.02.31-.12.39-.04.02-.09.03-.14.03Z"/>
              <path class="cls-13" d="M42.65,76.54c1.67,2.87,3.1,2.99,3.27,3.02.94.17,5.15-3.15,5.25-4.58,0,0-.88-2.09-2.37-2.81l-6.15,4.37Z"/>
              <path class="cls-3" d="M51.08,75.62s-.07,0-.11-.02c-.15-.06-.22-.23-.16-.37.03-.08.05-.14.06-.2-.15-.32-.82-1.69-1.85-2.39-.13-.09-.16-.27-.07-.4.09-.13.27-.16.4-.07,1.3.89,2.05,2.63,2.08,2.71l.03.06v.07c-.01.14-.05.28-.11.44-.04.11-.15.18-.27.18Z"/>
              <path class="cls-3" d="M45.87,79.84c-1.01-.16-2.08-1.04-3.05-2.49-.09-.13-.05-.31.08-.4.13-.09.31-.05.4.08,1.19,1.78,2.17,2.17,2.65,2.24l-.02.29-.05.28Z"/>
              <path class="cls-3" d="M42.42,77.64h0c-1.08,0-4.19-3.24-6.53-6.01-.1-.12-.09-.3.03-.4.12-.1.3-.09.4.03,3.06,3.64,5.5,5.81,6.09,5.81h0c.78,0,5.23-2.53,6.34-4.44.23-.38.28-.69.16-.91-.59-1.05-2.02-2.71-3.53-4.48-2.95-3.45-6.01-7.02-5.66-8.87.25-1.32,1.84-3.68,3.52-6.18,1.8-2.68,3.67-5.44,4-7.07.03-.16.19-.25.34-.22.15.03.25.18.22.34-.36,1.74-2.25,4.55-4.09,7.27-1.58,2.34-3.21,4.76-3.44,5.97-.3,1.58,2.93,5.36,5.53,8.39,1.53,1.79,2.97,3.48,3.59,4.57.23.41.17.9-.16,1.48-1.17,1.99-5.78,4.72-6.84,4.72Z"/>
              <path class="cls-3" d="M29.96,62.61c.64-.88,1.02-2,1.02-3.23,0-1.43-.52-2.71-1.35-3.63-.42,1.47-.65,2.78-.65,3.79,0,.78.37,1.85.98,3.07Z"/>
            </g>
          </g>
          <g>
            <path class="cls-4" d="M62.45,27.44c1.03,0,1.23-.21,1.39-.48.1-.17,0-.49-.21-1.22-.15-.5-.32-1.06-.41-1.58-.01-.06-.07-.11-.14-.1-.07.01-.11.07-.1.14.09.53.27,1.13.41,1.61.12.41.27.91.24,1.01-.11.18-.22.38-1.19.38-.07,0-.12.05-.12.12s.05.12.12.12Z"/>
            <path class="cls-10" d="M55.73,24.78c-.33.63-.15,1.37.4,1.67.55.29,1.27.02,1.61-.6.33-.63.15-1.37-.4-1.67-.55-.29-1.27-.02-1.61.6Z"/>
            <g>
              <path class="cls-17" d="M60.44,23.19c0,.44.21.79.46.79s.46-.35.46-.79-.21-.79-.46-.79-.46.35-.46.79Z"/>
              <path class="cls-17" d="M61.73,21.75c-.1.33-.92-.27-1.41-.22-.82.08-.86.5-1.16.42-.04-.38.49-.86,1.2-.91,1.06-.07,1.36.71,1.36.71Z"/>
            </g>
            <g>
              <path class="cls-17" d="M63.9,23.53c0,.36.17.65.38.65s.38-.29.38-.65-.17-.65-.38-.65-.38.29-.38.65Z"/>
              <path class="cls-17" d="M63.71,22.22c0,.26.7,0,1,.13.5.22.52.62.66.56.11-.24-.08-.73-.54-.92-.69-.27-1.11.23-1.11.23Z"/>
            </g>
            <path class="cls-6" d="M59.9,27.7c1,.93,2.29,1.25,2.29,1.25,0,0-.92.58-1.75.44-.83-.14-.54-1.68-.54-1.68Z"/>
          </g>
        </g>
        <g>
          <g>
            <path class="cls-19" d="M123.99,132.34l-3.1,25.11s3.19,1.55,8.96.79c1.47-20.4,5.1-18.01,4.05-30.14l-9.91,4.24Z"/>
            <path class="cls-7" d="M132.95,139.58c.88-3.22,1.45-5.71.95-11.49l-9.91,4.24-.88,7.16c1.02.14,5.13.61,9.85.08Z"/>
          </g>
          <g>
            <rect class="cls-7" x="106.2" y="162.68" width="23.93" height=".76"/>
            <path class="cls-4" d="M106.2,162.68c0-1.43,10.82-3.22,12.82-4.51,2.01-1.29,1.27-3.25,2.84-2.67.76.28,1.71,1.77,3.42,1.77,3.53,0,3.87-1.05,4.73-1.03.8.02.12,6.45.12,6.45h-23.93Z"/>
            <g>
              <path class="cls-7" d="M119.07,159.1l-.57-.13c-.46-.11-2.75-.69-2.92-1.67-.06-.36.13-.7.59-.99.27-.18.55-.22.83-.14.59.17,1.15.91,1.83,2.41l.24.53ZM116.74,156.69c-.07,0-.15.02-.25.09-.14.09-.36.26-.34.41.06.34.94.77,1.9,1.06-.47-.93-.87-1.45-1.21-1.54-.03,0-.06-.02-.1-.02Z"/>
              <path class="cls-7" d="M120.97,159.41c-1.03,0-2.29-.38-2.48-.44l-.46-.14.34-.33c.94-.92,2.44-1.38,3.34-1.01.43.18.67.52.68.96,0,.29-.11.54-.33.7-.26.19-.66.26-1.09.26ZM119.17,158.56c.93.24,2.15.42,2.55.12.05-.04.11-.1.1-.23,0-.13-.04-.33-.32-.45-.52-.21-1.51-.02-2.32.55Z"/>
              <path class="cls-7" d="M119.81,161.08c-.15,0-.27-.11-.28-.26-.07-.75-.77-1.53-1.04-1.81-.46.13-1.88.58-2.75,1.45-.11.11-.29.11-.41,0s-.11-.29,0-.41c1.17-1.17,3.09-1.63,3.18-1.65l.15-.03.11.1c.05.05,1.23,1.14,1.33,2.29.01.16-.1.3-.26.31,0,0-.02,0-.03,0Z"/>
            </g>
          </g>
          <g>
            <path class="cls-19" d="M153.15,128l6.92,21.24s3.07.15,8.17-2.63l-6.01-21.53-9.08,2.91Z"/>
            <path class="cls-7" d="M153.15,128l2.47,7.6s4.52-1.29,8.31-4.38l-1.71-6.13-9.08,2.91Z"/>
          </g>
          <g>
            <rect class="cls-7" x="147.12" y="155.65" width="23.93" height=".76" transform="translate(-43.77 63.82) rotate(-20)"/>
            <path class="cls-4" d="M147.71,159.76c-.49-1.35,9.06-6.73,10.51-8.63s.08-3.48,1.76-3.49c.81,0,2.21,1.08,3.81.49,3.32-1.21,3.28-2.31,4.09-2.58.76-.25,2.32,6.02,2.32,6.02l-22.49,8.18Z"/>
            <g>
              <path class="cls-7" d="M154.59,151.12c0-.23.1-.49.31-.76.19-.26.44-.4.73-.42.61-.04,1.4.46,2.55,1.64l.41.42-.58.07c-.47.06-2.82.29-3.32-.57-.07-.12-.1-.24-.1-.37ZM157.33,151.55c-.76-.71-1.31-1.06-1.66-1.04-.08,0-.19.03-.31.19-.1.13-.25.37-.17.5.17.3,1.15.4,2.14.34Z"/>
              <path class="cls-7" d="M157.51,152.09l.21-.43c.57-1.19,1.83-2.13,2.8-2.09.46.02.81.26.97.67.1.27.08.54-.07.77-.59.9-3.13,1.04-3.42,1.05l-.48.02ZM160.97,150.57s0-.07-.03-.12c-.05-.13-.15-.3-.46-.31-.56-.02-1.43.5-1.99,1.32.96-.09,2.16-.34,2.43-.75.02-.03.04-.08.04-.13Z"/>
              <path class="cls-7" d="M155.37,154.3s0-.08.03-.12c.7-1.5,2.35-2.59,2.42-2.63l.13-.08.14.06c.06.03,1.54.65,2.04,1.69.07.14,0,.31-.14.38-.14.07-.31,0-.38-.14-.3-.63-1.15-1.13-1.6-1.34-.39.28-1.57,1.19-2.09,2.31-.07.14-.24.21-.38.14-.1-.05-.17-.15-.17-.26Z"/>
            </g>
          </g>
          <g>
            <path class="cls-9" d="M125.87,72.1c-3.26,4.75-1.95,14.05-2.51,21.23-.56,7.18-3.15,35.24-3.15,35.24.17,12.71,36.27,4.31,48.03-3.91,11.75-8.22,2.42-3.43-2.75-10.41-5.17-6.98-5.17-42.65-16.35-45.47l-23.27,3.32Z"/>
            <path class="cls-7" d="M125.87,72.1c-.3.44-.56.94-.79,1.46,5.88,4.07,21.84,1.52,27.17-2.93-.93-.92-1.96-1.56-3.11-1.85l-23.27,3.32Z"/>
            <g>
              <path class="cls-4" d="M136.6,127.54c-2.65,0-5.38-.41-8.1-1.42-.15-.05-.22-.22-.17-.37.06-.15.22-.22.37-.17,13.97,5.18,28.49-5.86,28.63-5.98.13-.1.3-.07.4.05.1.12.07.31-.05.4-.12.09-9.82,7.48-21.08,7.48Z"/>
              <path class="cls-4" d="M131.69,125.48c-.45,0-.88-.03-1.28-.11-.16-.03-.26-.18-.23-.33.03-.16.18-.26.33-.23,5.83,1.07,17.53-6.8,17.65-6.88.13-.09.31-.05.4.08.09.13.05.31-.08.4-.45.31-10.53,7.08-16.8,7.08Z"/>
              <path class="cls-4" d="M146,108.37c-.1,0-.2-.05-.25-.15-.07-.12-6.74-12.44-8.95-20.26-.04-.15.05-.31.2-.35.15-.04.31.05.35.2,2.19,7.76,8.83,20.02,8.9,20.15.08.14.02.31-.11.39-.04.02-.09.03-.14.03Z"/>
              <path class="cls-4" d="M135.52,102.22s-.02,0-.03,0c-.16-.01-.27-.15-.26-.31,0-.09.78-8.63,1.96-12.78.04-.15.2-.24.35-.2.15.04.24.2.2.35-1.17,4.1-1.94,12.59-1.94,12.67-.01.15-.14.26-.29.26Z"/>
            </g>
          </g>
          <path class="cls-4" d="M158.35,56.93c-14.42,11.95-24.52-12.03-26.34-14.27-1.83-2.23-3.8-9.57-5.56-14.01-1.94-4.89-1.82-10.47-.61-11.96,2.06-2.54,9.32-5.42,12.51-2.06.63-.18,1.23-.16,1.81,0h0s0,0,0,0c.35.1.69.23,1.01.43,6.6,3.2,7.9,12.53,12.13,14.9,5.17,2.89,10.89,5.58,13.15,12.7-3.19-4.68-5.86-7.76-13.51-10.74-1.5-.58-2.66-1.5-3.63-2.61.62,1.17,1.23,2.13,1.86,2.72,3.65,3.4,22.74,12,7.17,24.9Z"/>
          <g>
            <path class="cls-6" d="M132.08,35.71s-8.04,1.64-10.26,2.87l2.08,18.79s.45,14.2,1.97,14.72c2.03,2.13,20.37,1.23,24.99-2.69.09-7.04-2.46-11.81-1.75-33.07-1.82-.2-6.66-.6-7.35-.73-1.19-.22-9.68.11-9.68.11Z"/>
            <path class="cls-8" d="M127.71,51.65c3.44,2.29,7.16.6,7.16.6,0,0-2.23,2.8-5.79,2.53-2.83-.21-1.37-3.13-1.37-3.13Z"/>
            <path class="cls-8" d="M133.99,41.29c-1.12,0-2.08-.24-2.6-.79-.11-.12-.1-.3.01-.41.12-.11.3-.1.41.01,1,1.07,5.02.62,7.04-.79.13-.09.31-.06.4.07.09.13.06.31-.07.4-1.31.91-3.43,1.5-5.19,1.5Z"/>
          </g>
          <path class="cls-19" d="M132.9,24.9c.12,1.33-.95,11.61-.95,11.61-.89,5.91,8.91,0,8.91,0l-1.15-12.98-6.81,1.37Z"/>
          <path class="cls-7" d="M132.21,33.93c4.18-1.51,3.76-4.34,3.76-4.34l-3.35-.12c-.13,1.52-.29,3.15-.42,4.46h0Z"/>
          <g>
            <g>
              <path class="cls-19" d="M105.82,73.47c-.24.28-1.77,1.1-1.65,3.06.06.98-.83,2.83-.9,3.13-.23.97-.99,2.16-1.14,2.48-.06.14-.89.07-.98-.92-.04-.39.11-.87.54-1.65.22-.41.43-1.65.15-1.86-.36-.26-.72-.28-1.18.13-1.17,1.02-3.41,4.42-3.87,4.6-.37.15-1.25-.18-.92-1.05.33-.87-.74.54-1.2.88-.89.65-1.45-.15-1.21-.62.55-1.12.39-1.18-.1-.91-.63.35-1.22-.4-.88-.92.13-.19,2.14-2.97,1.44-2.59-.67.36-1.33-.43-.68-1.07.56-.56,2.22-2.45,2.85-3.02.83-.75,1.61-1.76,6.39-4.44l3.34,4.78Z"/>
              <g>
                <path class="cls-4" d="M93.27,78.81s-.06,0-.08-.02c-.07-.04-.08-.13-.04-.2.45-.67.64-1.01.72-1.18-.33.12-.69.03-.89-.25-.2-.27-.23-.72.16-1.11.22-.22.62-.66,1.05-1.12.67-.73,1.42-1.55,1.81-1.9.06-.05.15-.05.2.01.05.06.05.15-.01.2-.38.34-1.13,1.16-1.79,1.88-.45.49-.83.91-1.06,1.13-.29.29-.25.57-.13.73.12.16.37.26.65.11.17-.09.26-.05.31,0,.09.1.19.21-.77,1.64-.03.04-.07.06-.12.06Z"/>
                <path class="cls-4" d="M95.91,81.27s-.04,0-.06-.01c-.07-.03-.1-.12-.07-.19.78-1.75,2.63-3.79,3.5-4.62.06-.05.15-.05.2,0,.05.06.05.15,0,.2-.85.82-2.67,2.82-3.43,4.53-.02.05-.08.08-.13.08Z"/>
                <path class="cls-4" d="M93.8,80.81s-.05,0-.08-.02c-.07-.04-.09-.13-.04-.2,1.21-1.9,3.74-4.83,3.76-4.86.05-.06.14-.07.2-.01.06.05.07.14.01.2-.03.03-2.54,2.94-3.74,4.82-.03.04-.07.07-.12.07Z"/>
                <path class="cls-4" d="M94.07,77.39s-.06,0-.08-.03c-.06-.05-.08-.14-.03-.2.36-.49,2.31-2.49,2.39-2.58.05-.06.15-.06.2,0,.06.05.06.15,0,.2-.02.02-2.02,2.07-2.36,2.55-.03.04-.07.06-.12.06Z"/>
              </g>
            </g>
            <g>
              <path class="cls-1" d="M131.77,69.72c0-17.89-1.13-10.81-1.49-18.67-.21-4.63.27-9.55,1.75-15.33,0,0-6.73.85-10.21,2.86-3.39,1.96-7.62,15.81-9.11,17.97-1.49,2.16-11.43,11.95-11.43,11.95-.66,2.13,2.59,5.69,4.54,5.87,0,0,12.08-9.72,12.96-10.44.76-.61,4.25-5.37,4.25-5.37,0,0-.86,9.33,0,10.61,1,1.1,6.43,1.55,8.75.55Z"/>
              <path class="cls-17" d="M123.02,58.85s-.01,0-.02,0c-.16,0-.28-.15-.27-.3.22-3.7-.31-5.42-.73-6.8-.56-1.83-.97-3.15.75-7.53.06-.15.22-.22.37-.16.15.06.22.22.16.37-1.65,4.19-1.29,5.37-.74,7.15.44,1.42.99,3.2.76,7,0,.15-.14.27-.29.27Z"/>
              <path class="cls-17" d="M115.43,59.94s-.1-.01-.14-.04c-2.47-1.44-2.65-3.07-2.66-3.14-.01-.12.05-.23.16-.29.11-.05.24-.03.32.05,1.34,1.3,4.84,1.74,4.87,1.75.16.02.27.16.25.32-.02.16-.17.27-.32.25-.13-.02-2.69-.34-4.37-1.3.31.52.91,1.21,2.03,1.86.14.08.18.26.1.39-.05.09-.15.14-.25.14Z"/>
            </g>
          </g>
          <path class="cls-19" d="M128.18,18.89c-1.32,2.1-.43,3.24-.43,5.32,0,2.24-.86,5.42.94,7.08,1.86,1.72,6.17,1.8,9.11-1.92,2.98-3.75,2.3-10.02-.94-11.63-2.77-1.38-6.86-1.75-8.69,1.15Z"/>
          <path class="cls-4" d="M126.3,20.75c3.82.29,5.71-2.29,8.84-1.65.41,1.24,2.91,6.12,4.58,3.46,1.68-2.67.68-5.45-2.22-6.73-2.9-1.29-6.83-1.78-8.95-.2-3.26,2.44-2.26,5.12-2.26,5.12Z"/>
          <g>
            <path class="cls-19" d="M139.72,22.55c.83-1.07,2.49-.75,2.88.59.27.92,0,3.54-2.63,3.36-2.44-.16-.86-3.17-.25-3.95Z"/>
            <path class="cls-4" d="M140.07,25.05c-.06,0-.12-.04-.14-.11-.2-.81.03-1.66.54-2.02.34-.23.74-.22,1.14.06.07.04.08.13.04.2-.04.07-.13.08-.2.04-.3-.2-.58-.22-.82-.06-.41.28-.59,1.02-.42,1.71.02.08-.03.15-.11.17-.01,0-.02,0-.03,0Z"/>
            <path class="cls-6" d="M141.35,26.64c0,.61-.26,1.11-.58,1.11s-.58-.5-.58-1.11.26-1.11.58-1.11.58.5.58,1.11Z"/>
          </g>
          <g>
            <path class="cls-4" d="M130,27.44c-1.03,0-1.23-.21-1.39-.48-.1-.17,0-.49.21-1.22.15-.5.32-1.06.41-1.58.01-.06.07-.11.14-.1.07.01.11.07.1.14-.09.53-.27,1.13-.41,1.61-.12.41-.27.91-.24,1.01.11.18.22.38,1.19.38.07,0,.12.05.12.12s-.05.12-.12.12Z"/>
            <path class="cls-10" d="M137.16,24.55c.48.9.22,1.97-.57,2.39-.79.42-1.82.04-2.3-.86-.48-.9-.22-1.97.57-2.39.79-.42,1.82-.04,2.3.86Z"/>
            <g>
              <path class="cls-4" d="M133.15,27.08c-.87.62-2.15,1.17-2.97.99.46.63,1.01,1.55,2.36,1.07.83-.29.93-1.16.61-2.06Z"/>
              <path class="cls-6" d="M133.3,27.69c-.03-.2-.07-.4-.15-.61-.11.08-.22.15-.34.23-.24.15-.5.29-.76.41-.66.3-1.35.47-1.86.35.13.18.27.38.43.56,1.36-.08,2.2-.52,2.69-.94Z"/>
            </g>
            <g>
              <g>
                <path class="cls-17" d="M132.01,23.19c0,.44-.21.79-.46.79s-.46-.35-.46-.79.21-.79.46-.79.46.35.46.79Z"/>
                <path class="cls-17" d="M130.72,21.75c.12.28.59-.16,1.22-.2.53-.04,1.12.21,1.34.41.04-.38-.49-.86-1.2-.91-1.06-.07-1.36.71-1.36.71Z"/>
                <path class="cls-17" d="M131.54,22.4c-.41-.06-.82,0-.82,0l.82.25v-.26Z"/>
              </g>
              <g>
                <path class="cls-17" d="M128.56,23.53c0,.36-.17.65-.38.65s-.38-.29-.38-.65.17-.65.38-.65.38.29.38.65Z"/>
                <path class="cls-17" d="M128.74,22.22c-.06.36-.55-.05-.93.09-.34.13-.61.38-.73.59-.11-.24.08-.73.54-.92.69-.27,1.11.23,1.11.23Z"/>
                <path class="cls-17" d="M128.17,22.87c-.41-.06-.66,0-.66,0l.66.2v-.21Z"/>
              </g>
            </g>
          </g>
          <g>
            <path class="cls-19" d="M143.6,25.31c-.4-1.41.45-1.41.45-1.41,1.5,1.78,1.36,2.05,1.48,2.61.12.56-.38,4.5-.38,4.5l-1.55-5.71Z"/>
            <path class="cls-19" d="M145.05,35.53c-.02.12-4.38-.57-4.38-.57-1.01-2.63.99-5.31,1.1-6.01.11-.69-.36-1.1-.36-1.1,0,0-.91-.48-1.22.17-.49,1.02-1.16.55-1.16.55,0,0,.02-.47.45-1.34-.83.73-1.2.04-1.2.04.25-.64.64-1.26,1.2-1.57.92-.32,1.65-.33,1.65-.33,0,0-.73-.76-1.27-1.16-.53-.4-1.86-.52-1.86-.52-.45-.14-.69-.77-.44-1.09,0,0,1.26.08,1.47.25l-.24-.27c-.34-.42-.23-.8.04-.98l1.01.31,2.66,1.43s1.78,2.34,2.46,3.98c.12.29.69,3.32.1,8.21Z"/>
            <g>
              <path class="cls-4" d="M144.96,35.67c-.32,0-1.28-.1-4.31-.58-.05,0-.09-.04-.11-.09-.79-2.06.22-4.17.77-5.31.16-.34.3-.63.32-.77.09-.59-.28-.94-.31-.97,0,0-.27-.14-.56-.14-.06,0-.13,0-.19.03-.11.04-.19.11-.25.23-.19.4-.44.64-.73.72-.35.09-.63-.1-.64-.11-.04-.03-.06-.07-.06-.12,0-.02.02-.34.26-.94-.17.08-.34.1-.49.07-.34-.06-.49-.35-.5-.36-.02-.04-.02-.08,0-.12.21-.55.61-1.28,1.26-1.65.59-.2,1.09-.29,1.4-.32-.26-.25-.69-.67-1.03-.92-.5-.37-1.78-.5-1.79-.5-.3-.09-.53-.34-.63-.64-.08-.26-.05-.51.09-.68.03-.04.08-.06.12-.05.19.01.65.05,1.03.11-.17-.26-.18-.47-.16-.62.03-.19.14-.36.3-.47.04-.02.08-.03.12-.02l1.01.31,2.68,1.44s.03.02.05.04c.07.1,1.8,2.37,2.48,4.01.11.26.71,3.31.11,8.28h0s-.03.08-.06.1c-.02.01-.04.03-.18.03ZM145.05,35.53h0,0ZM140.77,34.83c1.44.23,3.65.55,4.15.57.58-4.85,0-7.78-.1-8.03-.63-1.51-2.23-3.67-2.42-3.92l-2.63-1.41-.91-.28c-.07.06-.12.15-.13.24-.02.15.04.32.17.5l.24.26c.05.06.05.14,0,.2-.05.05-.14.06-.19.01-.1-.08-.73-.17-1.3-.21-.04.1-.05.23,0,.36.07.21.22.39.41.44h0s1.35.13,1.9.55c.54.4,1.25,1.14,1.28,1.17.04.04.05.1.03.15-.02.05-.07.09-.13.09,0,0-.72.01-1.6.32-.53.3-.88.93-1.09,1.42.04.05.13.14.27.16.19.03.42-.07.68-.29.05-.04.13-.05.18,0,.05.04.07.12.04.18-.31.62-.4,1.03-.43,1.19.07.03.2.06.34.03.2-.05.39-.24.54-.56.09-.19.23-.32.42-.38.44-.14.97.14.99.15.05.04.55.48.43,1.25-.03.19-.16.47-.35.85-.56,1.16-1.48,3.09-.79,5Z"/>
              <path class="cls-4" d="M142.41,27.63s-.08-.02-.11-.05c0,0-.53-.6-.8-.83-.2-.17-1.14-.04-1.28.02-.16.08-.51.44-.64.57-.05.06-.15.06-.2,0-.06-.05-.06-.15,0-.2.05-.05.48-.5.71-.62.15-.08,1.26-.27,1.6.02.28.24.8.84.83.86.05.06.05.15-.01.2-.03.02-.06.04-.09.04Z"/>
              <path class="cls-4" d="M143.26,25.93s-.08-.02-.11-.05l-1.22-1.55c-.17-.09-1.02-.54-1.41-.79-.4-.25-1.51-.55-1.52-.55-.08-.02-.12-.1-.1-.18.02-.08.1-.12.18-.1.05.01,1.17.31,1.6.59.41.26,1.4.79,1.41.79.02,0,.03.02.05.04l1.24,1.57c.05.06.04.15-.02.2-.03.02-.06.03-.09.03Z"/>
              <path class="cls-4" d="M142.9,26.66s-.08-.02-.11-.05c0,0-.55-.6-.77-.78-.14-.12-.64-.26-.92-.32-.08-.02-.13-.09-.11-.17.02-.08.09-.12.17-.11.08.02.8.17,1.05.38.23.19.77.79.8.81.05.06.05.15,0,.2-.03.03-.06.04-.1.04Z"/>
            </g>
          </g>
          <g>
            <path class="cls-15" d="M139.62,55.05c.45,3.6.57,13.97.57,13.97,8.13.86,11.87-2.3,11.87-2.3-2.44-6.09-3.17-19.05-2.88-22.3.29-3.25-.07-8.08-.07-8.08,0,0-4.87-.81-8.35-.79,0,0-1.88,13.68-1.15,19.51Z"/>
            <path class="cls-15" d="M149.12,36.33c-.94-.34-1.86-.25-2.74.15-.04-.79-.07-1.26-.07-1.26-1.86-2.37-6.61-2.68-6.83-.9-.46,7.36-3,17.63-2.28,21.43,0,.01,0,.02,0,.04.41,2.77,2.82,6.36,6.96,6.16,4.65-.22,12.68-22.81,4.95-25.61Z"/>
            <g>
              <path class="cls-12" d="M143.84,62.24c-1.4,0-2.69-.42-3.82-1.24-.13-.09-.16-.27-.06-.4.09-.13.27-.16.4-.06,1.11.81,2.39,1.18,3.8,1.12,1.47-.07,3.54-2.82,5.28-7.01.06-.15.23-.21.37-.15.15.06.22.23.15.38-1.45,3.49-3.74,7.26-5.79,7.36-.11,0-.23,0-.34,0Z"/>
              <path class="cls-12" d="M145.46,56.73s-.09-.01-.13-.03c-.14-.07-.2-.24-.12-.39,1.42-2.77,1.03-16.15.87-20.19,0-.16.12-.29.28-.3.16,0,.29.12.3.28.2,5.22.51,17.66-.94,20.48-.05.1-.15.16-.26.16Z"/>
            </g>
          </g>
          <path class="cls-4" d="M142.65,23.34c-4.42-2.93-2.97.98-4.98.75,1.1,1.74-.21,4.25-.21,4.25,0,0,.22-2.55-.71-3.78-1.04-1.37-1.75-3.46-1.62-5.47,0,0,1.65-.76,5.06,0,3.4.76,2.45,4.24,2.45,4.24Z"/>
        </g>
      </g>
    </g>
  </g>
</svg>